<svg xmlns="http://www.w3.org/2000/svg"
								viewBox="0 0 24 24"
								fill="currentColor"
							>
								<path
									d="M3 21h18v-2H3v2zm0-4h18v-2H3v2zm0-4h18v-2H3v2zm0-4h18V7H3v2zm0-6v2h18V3H3z"
								/>
								<path
									d="M10.01 13.59c-.41-.41-1.08-.41-1.49 0l-4.57 4.57c-.39.39-.39 1.02 0 1.41l4.57 4.57c.41.41 1.08.41 1.49 0l4.57-4.57c.39-.39.39-1.02 0-1.41l-4.57-4.57zM7.3 19.3c-.72-.72-1.99-.72-2.7 0l-1.89 1.89c-.78.78-.78 2.05 0 2.83l2.7 2.7c.72.72 1.99.72 2.7 0l1.89-1.89c.78-.78.78-2.05 0-2.83l-2.7-2.7z"
								/>
							</svg>